HIERARCHY
ROOT Hips
{
	OFFSET 0.000000 0.000000 0.000000 
	CHANNELS 6 Xposition Yposition Zposition Zrotation Yrotation Xrotation
	JOINT LeftUpLeg
	{
		OFFSET 1.363060 -1.794630 0.839290 
		CHANNELS 3 Zrotation Yrotation Xrotation
		JOINT LeftLeg
		{
			OFFSET 2.448110 -6.726130 0.000000 
			CHANNELS 3 Zrotation Yrotation Xrotation
			JOINT LeftFoot
			{
				OFFSET 2.562200 -7.039590 0.000000 
				CHANNELS 3 Zrotation Yrotation Xrotation
				JOINT LeftToeBase
				{
					OFFSET 0.157640 -0.433110 2.322550 
					CHANNELS 3 Zrotation Yrotation Xrotation
					End Site
					{
						OFFSET 0.000000 0.000000 0.000000 
					}
				}
			}
		}
	}
	JOINT RightUpLeg
	{
		OFFSET -1.305520 -1.794630 0.839290 
		CHANNELS 3 Zrotation Yrotation Xrotation
		JOINT RightLeg
		{
			OFFSET -2.542530 -6.985550 0.000000 
			CHANNELS 3 Zrotation Yrotation Xrotation
			JOINT RightFoot
			{
				OFFSET -2.568260 -7.056230 0.000000 
				CHANNELS 3 Zrotation Yrotation Xrotation
				JOINT RightToeBase
				{
					OFFSET -0.164730 -0.452590 2.363150 
					CHANNELS 3 Zrotation Yrotation Xrotation
					End Site
					{
						OFFSET 0.000000 0.000000 0.000000 
					}
				}
			}
		}
	}
	JOINT Spine
	{
		OFFSET 0.028270 2.035590 -0.193380 
		CHANNELS 3 Zrotation Yrotation Xrotation
		JOINT Spine1
		{
			OFFSET 0.056720 2.048850 -0.042750 
			CHANNELS 3 Zrotation Yrotation Xrotation
			JOINT Neck1
			{
				OFFSET -0.054170 1.746240 0.172020 
				CHANNELS 3 Zrotation Yrotation Xrotation
				JOINT Head
				{
					OFFSET 0.104070 1.761360 -0.123970 
					CHANNELS 3 Zrotation Yrotation Xrotation
					End Site
					{
						OFFSET 0.000000 0.000000 0.000000 
					}
				}
			}
			JOINT LeftArm
			{
				OFFSET 3.362410 1.200890 -0.311210 
				CHANNELS 3 Zrotation Yrotation Xrotation
				JOINT LeftForeArm
				{
					OFFSET 4.983000 -0.000000 -0.000000 
					CHANNELS 3 Zrotation Yrotation Xrotation
					JOINT LeftHand
					{
						OFFSET 3.483560 -0.000000 -0.000000 
						CHANNELS 3 Zrotation Yrotation Xrotation
						JOINT LeftHandIndex1
						{
							OFFSET 0.715260 -0.000000 -0.000000 
							CHANNELS 3 Zrotation Yrotation Xrotation
							End Site
							{
								OFFSET 0.000000 0.000000 0.000000 
							}
						}
					}
				}
			}
			JOINT RightArm
			{
				OFFSET -3.136600 1.374050 -0.404650 
				CHANNELS 3 Zrotation Yrotation Xrotation
				JOINT RightForeArm
				{
					OFFSET -5.241900 -0.000000 -0.000000 
					CHANNELS 3 Zrotation Yrotation Xrotation
					JOINT RightHand
					{
						OFFSET -3.444170 -0.000000 -0.000000 
						CHANNELS 3 Zrotation Yrotation Xrotation
						JOINT RightHandIndex1
						{
							OFFSET -0.622530 -0.000000 -0.000000 
							CHANNELS 3 Zrotation Yrotation Xrotation
							End Site
							{
								OFFSET 0.000000 0.000000 0.000000 
							}
						}
					}
				}
			}
		}
	}
}
MOTION
Frames: 7
Frame Time: 0.041667
-5.880126 17.961198 -28.172907 176.612245 -46.789489 -161.096405 -18.727333 -33.828706 -18.789552 -5.585391 13.414654 23.084081 5.397230 -10.835581 9.921991 2.006300 -8.879200 -25.418200 -3.674932 42.087313 -26.539954 5.016361 -16.645451 22.729020 -7.320440 15.192574 14.373446 -0.247900 3.203700 -8.846400 0.284713 2.304830 -4.714726 -6.394500 0.871060 2.392606 -0.102945 19.377121 12.905127 -3.688400 9.015600 15.572300 -52.430632 -21.196049 55.202258 32.349585 -34.013042 -15.852798 0.302000 -5.565561 -64.244846 -7.125000 0.000000 0.000000 53.698431 18.074726 30.739144 -34.961438 35.434724 -16.617986 0.977645 4.414023 -34.476285 7.125000 0.000000 0.000000 
-5.822421 17.950357 -28.283009 176.630179 -48.040970 -161.174358 -18.142152 -34.414297 -18.815570 -5.561958 13.465747 23.068993 5.521915 -11.248522 9.808224 2.041300 -8.951500 -25.643700 -2.096912 40.667387 -25.655331 4.860460 -16.361230 23.080436 -7.247598 15.103269 13.233684 -0.257800 3.266600 -9.022000 0.257887 2.424827 -4.713238 -6.667361 0.925436 2.250450 -0.184324 19.820935 12.734033 -3.730100 9.271000 15.411500 -52.386947 -21.238517 55.507270 32.270116 -33.949497 -15.780925 0.297663 -5.571386 -64.265289 -7.125000 0.000000 0.000000 53.919054 17.866240 30.583560 -34.793438 35.363716 -16.510018 0.987902 4.412408 -34.333752 7.125000 0.000000 0.000000 
-5.763248 17.943017 -28.392998 176.674427 -49.284552 -161.260883 -17.515657 -34.975694 -18.835037 -5.549726 13.485397 22.984653 5.643649 -11.631491 9.737723 2.075300 -9.021300 -25.861900 -0.564173 39.280018 -24.823405 4.712122 -16.078186 23.385382 -7.146175 14.762952 11.996056 -0.299400 3.518500 -9.725800 0.230723 2.550999 -4.710588 -6.935972 0.982268 2.118397 -0.275866 20.258837 12.557510 -3.787400 9.526500 15.258100 -52.320089 -21.289754 55.801724 32.205150 -33.897622 -15.722256 0.293603 -5.579633 -64.284933 -7.125000 0.000000 0.000000 54.145902 17.668439 30.424668 -34.629108 35.294251 -16.403745 0.998023 4.409613 -34.214710 7.125000 0.000000 0.000000 
-5.702833 17.939403 -28.502874 176.728053 -50.510495 -161.349340 -16.872378 -35.515327 -18.831433 -5.550004 13.467856 22.825936 5.759167 -11.975424 9.721830 2.107800 -9.087000 -26.067900 0.888705 37.996808 -24.043577 4.572485 -15.812104 23.646430 -6.997389 14.124928 10.670238 -0.391800 4.019400 -11.131300 0.202700 2.687945 -4.705410 -7.189735 1.044547 2.002315 -0.373081 20.692725 12.378569 -3.852800 9.780500 15.115900 -52.231077 -21.345916 56.085627 32.168506 -33.868532 -15.688206 0.291067 -5.588346 -64.308695 -7.125000 0.000000 0.000000 54.371929 17.484149 30.248865 -34.462258 35.220707 -16.293142 1.010338 4.403630 -34.100824 7.125000 0.000000 0.000000 
-5.640837 17.939855 -28.612299 176.796609 -51.723909 -161.430543 -16.200228 -36.035745 -18.816081 -5.564151 13.413254 22.588681 5.870846 -12.286491 9.771911 2.138800 -9.149400 -26.263800 2.222073 36.913565 -23.333953 4.444191 -15.585798 23.870902 -6.766970 13.113313 9.295171 -0.544700 4.728200 -13.135000 0.174903 2.829652 -4.698007 -7.420801 1.109451 1.903232 -0.481516 21.125059 12.193263 -3.928600 10.033100 14.983800 -52.091412 -21.382769 56.349172 32.188212 -33.886905 -15.703233 0.292048 -5.595152 -64.368820 -7.125000 0.000000 0.000000 54.597559 17.325602 30.049736 -34.284027 35.135190 -16.171389 1.025532 4.394696 -33.955684 7.125000 0.000000 0.000000 
-5.577261 17.944372 -28.721836 176.881248 -52.921249 -161.508811 -15.511025 -36.530033 -18.778740 -5.590102 13.320413 22.278831 5.975426 -12.550667 9.889153 2.172100 -9.215800 -26.472700 3.415827 36.124650 -22.698842 4.333827 -15.415433 24.074110 -6.431830 11.761246 8.012404 -0.725300 5.441700 -15.172700 0.151316 2.969201 -4.687589 -7.602794 1.174812 1.825382 -0.578951 21.592222 12.018749 -3.980200 10.294300 14.874000 -51.932422 -21.414386 56.566710 32.243436 -33.935487 -15.749508 0.295914 -5.600197 -64.446088 -7.125000 0.000000 0.000000 54.773079 17.204244 29.834584 -34.097106 35.036896 -16.041255 1.040135 4.386133 -33.808891 7.125000 0.000000 0.000000 
-5.511764 17.952390 -28.831148 176.980921 -54.109057 -161.577446 -14.803061 -37.000135 -18.737827 -5.625690 13.198562 21.910164 6.072640 -12.766675 10.069946 2.214600 -9.299600 -26.736900 4.456085 35.688971 -22.153605 4.243414 -15.317426 24.278381 -5.994442 10.180548 6.920087 -0.878200 5.974500 -16.710400 0.131965 3.102201 -4.674898 -7.733180 1.238401 1.772876 -0.663247 22.077791 11.852382 -3.997900 10.551900 14.779200 -51.768035 -21.446346 56.724710 32.325276 -34.006320 -15.820881 0.302923 -5.607906 -64.529062 -7.125000 0.000000 0.000000 54.906320 17.123247 29.597787 -33.911368 34.931306 -15.909727 1.053114 4.377502 -33.666940 7.125000 0.000000 0.000000 
